<mxfile host="65bd71144e">
    <diagram id="gky2rtm6zjWPUcym66U7" name="Page-1">
        <mxGraphModel dx="1775" dy="549" grid="1" gridSize="10" guides="1" tooltips="1" connect="1" arrows="1" fold="1" page="1" pageScale="1" pageWidth="850" pageHeight="1100" math="0" shadow="0">
            <root>
                <mxCell id="0"/>
                <mxCell id="1" parent="0"/>
                <mxCell id="6" style="edgeStyle=none;html=1;entryX=0.633;entryY=-0.067;entryDx=0;entryDy=0;entryPerimeter=0;" edge="1" parent="1" source="2" target="3">
                    <mxGeometry relative="1" as="geometry"/>
                </mxCell>
                <mxCell id="7" style="edgeStyle=none;html=1;entryX=0.5;entryY=0;entryDx=0;entryDy=0;" edge="1" parent="1" source="2" target="4">
                    <mxGeometry relative="1" as="geometry"/>
                </mxCell>
                <mxCell id="8" style="edgeStyle=none;html=1;entryX=0.625;entryY=0;entryDx=0;entryDy=0;entryPerimeter=0;" edge="1" parent="1" source="2" target="5">
                    <mxGeometry relative="1" as="geometry"/>
                </mxCell>
                <mxCell id="2" value="App&lt;br&gt;&lt;br&gt;CATEGORIES&lt;br&gt;state: allTasks, filter&lt;br&gt;deleteTask(task)&lt;br&gt;updateFilter(category)&lt;br&gt;onTaskFormSubmit(task)" style="whiteSpace=wrap;html=1;" vertex="1" parent="1">
                    <mxGeometry x="270" y="50" width="190" height="110" as="geometry"/>
                </mxCell>
                <mxCell id="11" style="edgeStyle=none;html=1;entryX=0.183;entryY=-0.05;entryDx=0;entryDy=0;entryPerimeter=0;" edge="1" parent="1" source="3" target="10">
                    <mxGeometry relative="1" as="geometry"/>
                </mxCell>
                <mxCell id="13" style="edgeStyle=none;html=1;" edge="1" parent="1" source="3" target="12">
                    <mxGeometry relative="1" as="geometry"/>
                </mxCell>
                <mxCell id="15" style="edgeStyle=none;html=1;entryX=0.5;entryY=0;entryDx=0;entryDy=0;" edge="1" parent="1" source="3" target="14">
                    <mxGeometry relative="1" as="geometry"/>
                </mxCell>
                <mxCell id="3" value="TaskList" style="whiteSpace=wrap;html=1;" vertex="1" parent="1">
                    <mxGeometry x="40" y="290" width="120" height="60" as="geometry"/>
                </mxCell>
                <mxCell id="4" value="CategoryFilter&lt;br&gt;category: onClick" style="whiteSpace=wrap;html=1;" vertex="1" parent="1">
                    <mxGeometry x="270" y="290" width="120" height="60" as="geometry"/>
                </mxCell>
                <mxCell id="5" value="NewTaskForm&lt;br&gt;form: onSubmit" style="whiteSpace=wrap;html=1;" vertex="1" parent="1">
                    <mxGeometry x="510" y="290" width="120" height="60" as="geometry"/>
                </mxCell>
                <mxCell id="9" value="prop: allTasks&lt;br&gt;prop: deleteTask" style="text;html=1;align=center;verticalAlign=middle;resizable=0;points=[];autosize=1;strokeColor=none;fillColor=none;" vertex="1" parent="1">
                    <mxGeometry x="60" y="220" width="110" height="40" as="geometry"/>
                </mxCell>
                <mxCell id="10" value="Task" style="whiteSpace=wrap;html=1;" vertex="1" parent="1">
                    <mxGeometry x="10" y="450" width="50" height="40" as="geometry"/>
                </mxCell>
                <mxCell id="12" value="Task&lt;br&gt;button: onClick" style="whiteSpace=wrap;html=1;" vertex="1" parent="1">
                    <mxGeometry x="70" y="455" width="90" height="60" as="geometry"/>
                </mxCell>
                <mxCell id="14" value="Task" style="whiteSpace=wrap;html=1;" vertex="1" parent="1">
                    <mxGeometry x="170" y="455" width="50" height="30" as="geometry"/>
                </mxCell>
                <mxCell id="16" value="prop: task&lt;br&gt;prop: deleteTask" style="text;html=1;align=center;verticalAlign=middle;resizable=0;points=[];autosize=1;strokeColor=none;fillColor=none;" vertex="1" parent="1">
                    <mxGeometry x="150" y="370" width="110" height="40" as="geometry"/>
                </mxCell>
                <mxCell id="17" value="deleteTask(task)" style="text;html=1;align=center;verticalAlign=middle;resizable=0;points=[];autosize=1;strokeColor=none;fillColor=none;" vertex="1" parent="1">
                    <mxGeometry x="60" y="515" width="110" height="30" as="geometry"/>
                </mxCell>
                <mxCell id="21" value="task gets sent as argument" style="text;html=1;align=center;verticalAlign=middle;resizable=0;points=[];autosize=1;strokeColor=none;fillColor=none;" vertex="1" parent="1">
                    <mxGeometry x="-35" y="95" width="170" height="30" as="geometry"/>
                </mxCell>
                <mxCell id="22" value="" style="endArrow=none;dashed=1;html=1;dashPattern=1 3;strokeWidth=2;entryX=-0.02;entryY=0.595;entryDx=0;entryDy=0;entryPerimeter=0;exitX=-0.026;exitY=0.621;exitDx=0;exitDy=0;exitPerimeter=0;" edge="1" parent="1" source="17" target="2">
                    <mxGeometry width="50" height="50" relative="1" as="geometry">
                        <mxPoint x="160" y="160" as="sourcePoint"/>
                        <mxPoint x="210" y="110" as="targetPoint"/>
                        <Array as="points">
                            <mxPoint x="-80" y="534"/>
                            <mxPoint x="-80" y="120"/>
                        </Array>
                    </mxGeometry>
                </mxCell>
                <mxCell id="23" value="props: updateFilter (for button select)&lt;br&gt;props: filter (used for className)" style="text;html=1;align=center;verticalAlign=middle;resizable=0;points=[];autosize=1;strokeColor=none;fillColor=none;" vertex="1" parent="1">
                    <mxGeometry x="255" y="240" width="220" height="40" as="geometry"/>
                </mxCell>
                <mxCell id="24" value="prop: addTask" style="text;html=1;align=center;verticalAlign=middle;resizable=0;points=[];autosize=1;strokeColor=none;fillColor=none;" vertex="1" parent="1">
                    <mxGeometry x="490" y="190" width="100" height="30" as="geometry"/>
                </mxCell>
                <mxCell id="25" value="updateFilter(category)" style="text;html=1;align=center;verticalAlign=middle;resizable=0;points=[];autosize=1;strokeColor=none;fillColor=none;" vertex="1" parent="1">
                    <mxGeometry x="260" y="350" width="140" height="30" as="geometry"/>
                </mxCell>
                <mxCell id="26" value="" style="endArrow=none;dashed=1;html=1;" edge="1" parent="1" source="25">
                    <mxGeometry width="50" height="50" relative="1" as="geometry">
                        <mxPoint x="330" y="390" as="sourcePoint"/>
                        <mxPoint x="475" y="100" as="targetPoint"/>
                        <Array as="points">
                            <mxPoint x="330" y="390"/>
                            <mxPoint x="730" y="390"/>
                            <mxPoint x="730" y="100"/>
                        </Array>
                    </mxGeometry>
                </mxCell>
                <mxCell id="27" value="sends category to App" style="text;html=1;align=center;verticalAlign=middle;resizable=0;points=[];autosize=1;strokeColor=none;fillColor=none;" vertex="1" parent="1">
                    <mxGeometry x="320" y="380" width="140" height="30" as="geometry"/>
                </mxCell>
                <mxCell id="28" value="handleSubmit -&amp;gt;&amp;nbsp; onTaskFormSubmit(task)" style="text;html=1;align=center;verticalAlign=middle;resizable=0;points=[];autosize=1;strokeColor=none;fillColor=none;" vertex="1" parent="1">
                    <mxGeometry x="445" y="350" width="250" height="30" as="geometry"/>
                </mxCell>
                <mxCell id="29" value="" style="endArrow=none;dashed=1;html=1;" edge="1" parent="1">
                    <mxGeometry width="50" height="50" relative="1" as="geometry">
                        <mxPoint x="647" y="347" as="sourcePoint"/>
                        <mxPoint x="480" y="130" as="targetPoint"/>
                        <Array as="points">
                            <mxPoint x="647" y="130"/>
                        </Array>
                    </mxGeometry>
                </mxCell>
                <mxCell id="30" value="sends task to app" style="text;html=1;align=center;verticalAlign=middle;resizable=0;points=[];autosize=1;strokeColor=none;fillColor=none;rotation=-90;" vertex="1" parent="1">
                    <mxGeometry x="580" y="220" width="120" height="30" as="geometry"/>
                </mxCell>
            </root>
        </mxGraphModel>
    </diagram>
</mxfile>